<svg xmlns="http://www.w3.org/2000/svg" width="12" height="812" viewBox="0 0 12 812">
    <g fill="none" fill-rule="evenodd">
        <path fill="#1A1A1A" d="M12.008 10l-5-2.5v-.714c1.163-.482 2-1.764 2-3.286 0-2.662-.804-3.5-3-3.5-2.219 0-3 .838-3 3.5 0 1.522.837 2.803 2 3.286V7.5l-5 2.5v2h12v-2zm-3 192.758v2.243h-4v2h4v2.243l3.243-3.243-3.243-3.243zm-4 161.243c0 .978.396 1.839 1 2.386v1.604l-3 2.01v2h9v-2l-3.015-2h.015v-1.614c.604-.548 1-1.408 1-2.386 0-2.282-.67-3-2.5-3-1.849-.001-2.5.718-2.5 3zm3-76v-2h.08c.564-.632.92-1.514.92-2.5 0-2.662-.804-3.501-3-3.501-2.219 0-3 .838-3 3.501 0 1.522.837 2.803 2 3.285v.714l-5 2.5v2h8v-1h-2v-3h2v.001zM1.008 88v3a1 1 0 0 0 1 1h1a1 1 0 0 0 1-1v-3a1 1 0 0 0-1-1h1v-1h-1v-4.344c0-.691.469-.719.469-.719 0-.276-.693-.937-.969-.937s-.844.567-.844.844c0 0 .344.052.344.656V86h-1v1h1a1 1 0 0 0-1 1zm10 238.001h-4v6h4v-6zM7.008 203v-2h-6v10h6v-2h-4v-6h4zm4 38.001h-6v2h4v6h-4v2h6v-10zM.008 371h2v-1.4l3.394-2.456c-.837-.728-1.394-1.849-1.394-3.144 0-2.253.504-3.358 1.814-3.783-.35-.144-.776-.217-1.314-.217-1.849 0-2.5.718-2.5 3 0 .978.396 1.839 1 2.386v1.093l-3 2.521v2zm0-45.999h5v-2h.555c.263-.598-.688-1.574-1.496-2.234a10.836 10.836 0 0 0-.335-.264c-.881-.666-2-.67-2.5-.009-.499.661-.19 1.737.691 2.403.051.038.119.07.178.105H.008v1.999zm2.284-3.665c.283-.336.918-.333 1.418.005.5.338 1.299.988 1.015 1.324-.283.336-1.542.23-2.041-.109-.5-.338-.676-.884-.392-1.22zm2.716 10.665v-6h-4v6h4zM.008 247h4v2.243L7.251 246l-3.243-3.243V245h-4v2zm10 234.001h-8a1 1 0 0 0-1 1v8a1 1 0 0 0 1 1h8a1 1 0 0 0 1-1v-8a1 1 0 0 0-1-1zm-2.988 5.011v3.989H4.994v-3.989H2.022l3.985-3.99 4.016 3.99H7.02zm.988 39.989v-1h2v1h1v-5a1 1 0 0 0-1-1h-8a1 1 0 0 0-1 1v10a1 1 0 0 0 1 1h4v-2h-1v-2h1v-1h-1v-2h2v1h1zm0-4h2v2h-2v-2zm-4 8h-2v-2h2v2zm0-3h-2v-2h2v2zm0-3h-2v-2h2v2zm1 0v-2h2v2h-2zm5 3h-1v2h-2v1h2v2h1v-2h2v-1h-2v-2zm0-240h-1v2h-2v1h2v2h1v-2h2v-1h-2v-2zm.085 35.895c.881-.666 1.19-1.742.691-2.403-.5-.661-1.619-.657-2.5.009-.838.633-2.132 1.815-1.831 2.498h.555v2h5v-2H9.914c.06-.035.128-.066.179-.104zm-.76-.34c-.5.338-1.758.444-2.041.109-.283-.336.516-.986 1.015-1.324.5-.338 1.135-.34 1.418-.005.283.336.108.882-.392 1.22zM12.008 82a1 1 0 0 0-1-1h-1a1 1 0 0 0-1-1h-2a1 1 0 0 0-1 1h-1v-1h-1v3h1v-1h1a1 1 0 0 0 1 1v8a1 1 0 0 0 2 0v-8h2a1 1 0 0 0 1-1zM5.501 41a4.494 4.494 0 0 0 0 8.986c.95 0 1.829-.299 2.555-.802l1.434 1.548a.888.888 0 1 0 1.256-1.257l-1.548-1.434c.5-.724.796-1.6.796-2.547A4.493 4.493 0 0 0 5.501 41zm.016 7.009a2.5 2.5 0 1 1 0-4.998 2.5 2.5 0 0 1 0 4.998zm-2.509 83.992h5a1 1 0 0 0 1-1v-10a1 1 0 0 0-1-1h-5a1 1 0 0 0-1 1v10a1 1 0 0 0 1 1zm2.5-1.001c-.276 0-.5-.119-.5-.266 0-.147.224-.266.5-.266s.5.119.5.266c0 .148-.224.266-.5.266zm0-9.999c.276 0 .5.133.5.297 0 .164-.224.297-.5.297s-.5-.133-.5-.297c0-.165.224-.297.5-.297zm-2.5 1h5v8h-5v-8zm-.799 46.398L.958 169.65l1.417 1.417 1.237-1.237c.423.268.892.469 1.395.584v1.61H7.01v-1.617c.5-.119.97-.313 1.391-.582l1.241 1.241 1.417-1.417-1.245-1.245c.259-.421.452-.889.56-1.387h1.642v-2.003h-1.672a4.527 4.527 0 0 0-.569-1.348l1.284-1.284-.716-.716-.7-.7-1.298 1.298a4.54 4.54 0 0 0-1.335-.546v-1.709H5.007v1.709a4.512 4.512 0 0 0-1.334.548l-1.299-1.299-1.417 1.417 1.285 1.285a4.48 4.48 0 0 0-.572 1.347H0v2.003h1.652c.112.494.297.961.557 1.38zm1.799-3.367l1-1.094h1.969l1.031 1.031V167l-.969 1.031H5.008l-1-1.063v-1.936zm7 275.969a1 1 0 0 0-1-1h-8a1 1 0 0 0-1 1v10a1 1 0 0 0 1 1h8a1 1 0 0 0 1-1v-10zm-7 9h-2v-2h2v2zm0-3h-2v-2h2v2zm0-3h-2v-2h2v2zm3 6h-2v-2h2v2zm0-3h-2v-2h2v2zm0-3h-2v-2h2v2zm3 6h-2v-2h2v2zm0-3h-2v-2h2v2zm0-3h-2v-2h2v2z"/>
        <path fill="#000" fill-rule="nonzero" d="M7.115 600.634l-2.563 4.438 1.732 1 2.563-4.438 1.152.665c.525.303.94 1.024.94 1.63v4.143c0 .605-.416 1.327-.94 1.63l-3.588 2.07c-.525.304-1.358.304-1.882 0l-3.588-2.07c-.525-.304-.941-1.025-.941-1.63v-4.144c0-.605.417-1.327.94-1.63l3.59-2.07c.524-.304 1.357-.304 1.88 0l.705.406zm-2.79 4.898s-.962.43-1.52 1.514c-.558 1.083-.45 2.456-.45 2.456s2.269.234 3.012-.996c.448-.74.611-1.083.611-1.975-.518-.403-1.653-1-1.653-1z"/>
        <path fill="#000" d="M12 561.071V570H0v-8.929l6 6 6-6zM.929 561H11.07L6 566.071.929 561z"/>
        <path fill="#393939" d="M12.001 410.002H9.998v1.535l-3.032-3.036 3.032-3.035v1.535h2.003v3.001zm-2.464 2l.461-.465v.465h-.461zm-1.538-5.538l-2.035 2.037 3.5 3.501H0v-2.003l5-2.499v-.713c-1.162-.485-1.999-1.766-1.999-3.286 0-2.664.779-3.501 2.998-3.501 2.196 0 3.001.837 3.001 3.501 0 1.03-.39 1.944-1.001 2.582v.381z"/>
        <path fill="#000" d="M9.874 765A4.002 4.002 0 0 0 2 766a4 4 0 0 0 7.874 1H7.732a2 2 0 1 1 0-2h2.142zM6 772a6 6 0 1 1 0-12 6 6 0 0 1 0 12z"/>
        <path fill="#C90000" d="M3 801.998h6l3 3v1l-6 6-6-6v-1l3-3zm5.646 3.646L6 808.291l-2.646-2.647a.5.5 0 1 0-.708.708L6 809.705l3.354-3.353a.5.5 0 1 0-.708-.708z"/>
        <path fill="#1A1A1A" fill-rule="nonzero" d="M6 728.537l.036-.036-.036-.036-.036.036.036.036zm6 3.465H0v-2.003l5-2.499v-.713c-1.162-.485-1.999-1.766-1.999-3.286 0-2.664.779-3.501 2.998-3.501h.002c2.219 0 2.998.837 2.998 3.501 0 1.52-.837 2.801-1.999 3.286v.713l5 2.499v2.003z"/>
        <path fill="#242424" fill-rule="nonzero" d="M10.9 681c.605 0 1.1.495 1.1 1.1v6.6c0 .605-.495 1.292-1.1 1.292H3.2L1 692l.006-9.9c0-.605.489-1.1 1.094-1.1h8.8zm-.9 4v-2H3v2h7zm0 3v-2H3v2h7z"/>
        <path fill="#1A1A1A" d="M6 652a6 6 0 1 1 0-12 6 6 0 0 1 0 12zm-.276-10c-.864 0-1.536.264-2.016.792-.48.504-.708 1.176-.708 2.016h.948c0-.588.132-1.044.396-1.38.288-.396.678-.428 1.278-.428.504 0 .954-.028 1.23.26.264.264.408.636.408 1.116 0 .336-.12.648-.36.948-.072.096-.216.24-.408.432-.648.576-1.044 1.032-1.212 1.392-.096.2-.18.49-.252.872h.96c.072-.293.16-.528.264-.704.12-.216.3-.432.564-.66.528-.468.852-.78.972-.924.3-.396.456-.864.456-1.404 0-.72-.228-1.284-.672-1.692-.468-.432-1.08-.636-1.848-.636zm-.18 6.848a.687.687 0 0 0-.516.204.644.644 0 0 0-.204.504c0 .204.06.372.204.516a.736.736 0 0 0 .516.204.736.736 0 0 0 .516-.204.662.662 0 0 0 .216-.516.687.687 0 0 0-.204-.504.714.714 0 0 0-.528-.204z"/>
    </g>
</svg>
